# MagicaVoxel @ Ephtracy

# group
o 

# material
mtllib Stairs.mtl
usemtl palette

# normals
vn -1 0 0
vn 1 0 0
vn 0 0 1
vn 0 0 -1
vn 0 -1 0
vn 0 1 0

# texcoords
vt 0.724609 0.5
vt 0.763672 0.5
vt 0.791016 0.5
vt 0.990234 0.5

# verts
v 0 2 0
v 0 2 -4
v 0 2.1 -0.1
v 0 2.1 -3.9
v 0 2.4 -0.4
v 0 2.4 -1.7
v 0 2.4 -2.2
v 0 2.4 -3.6
v 0 2.6 -1.7
v 0 2.6 -1.9
v 0 2.6 -3.6
v 0 2.6 -3.7
v 0 2.8 -1.9
v 0 2.8 -2
v 0 2.8 -2.2
v 0 2.8 -2.3
v 0 2.9 -0.1
v 0 2.9 -0.4
v 0 2.9 -1.9
v 0 2.9 -2
v 0 3 0
v 0 3 -0.4
v 0 3 -1
v 0 3.1 -3
v 0 3.1 -3.3
v 0 3.1 -3.6
v 0 3.1 -3.7
v 0 3.2 -1.7
v 0 3.2 -1.9
v 0 3.3 -1
v 0 3.3 -1.1
v 0 3.3 -1.7
v 0 3.3 -2.3
v 0 3.3 -2.6
v 0 3.3 -2.8
v 0 3.3 -3
v 0 3.3 -3.3
v 0 3.3 -3.4
v 0 3.5 -2.6
v 0 3.5 -2.8
v 0 3.7 -1
v 0 3.7 -1.1
v 0 3.7 -2.6
v 0 3.9 -1
v 0 3.9 -2
v 0 4 -3.4
v 0 4 -3.6
v 0 4.3 -3
v 0 4.3 -3.3
v 0 4.6 -2
v 0 4.6 -2.1
v 0 4.6 -2.6
v 0 4.7 -3.2
v 0 4.7 -3.5
v 0 4.8 -2.1
v 0 4.8 -3.1
v 0 4.9 -2
v 0 4.9 -3
v 0 5.1 -3.5
v 0 5.1 -3.7
v 0 5.2 -3.5
v 0 5.2 -3.7
v 0 5.5 -3.2
v 0 5.5 -3.5
v 0 5.9 -3.1
v 0 5.9 -3.9
v 0 6 -3
v 0 6 -4
v 4 2 0
v 4 2 -4
v 4 2.1 -0.1
v 4 2.1 -3.9
v 4 2.2 -1.3
v 4 2.2 -1.7
v 4 2.4 -0.4
v 4 2.4 -1.3
v 4 2.4 -2.3
v 4 2.4 -3.6
v 4 2.5 -1.7
v 4 2.5 -1.8
v 4 2.5 -2.1
v 4 2.5 -2.3
v 4 2.9 -0.1
v 4 2.9 -0.4
v 4 3 0
v 4 3 -0.4
v 4 3 -1
v 4 3 -1.7
v 4 3 -1.8
v 4 3.1 -2.1
v 4 3.1 -2.3
v 4 3.3 -1
v 4 3.3 -1.1
v 4 3.3 -1.3
v 4 3.3 -2.3
v 4 3.3 -2.7
v 4 3.3 -2.9
v 4 3.3 -3.3
v 4 3.3 -3.5
v 4 3.3 -3.6
v 4 3.4 -1.3
v 4 3.4 -1.7
v 4 3.5 -3.3
v 4 3.5 -3.5
v 4 3.6 -2.7
v 4 3.6 -2.9
v 4 3.7 -1
v 4 3.7 -1.1
v 4 3.7 -2.6
v 4 3.7 -3.6
v 4 3.7 -3.7
v 4 3.9 -1
v 4 3.9 -2
v 4 3.9 -3.3
v 4 3.9 -3.6
v 4 3.9 -3.7
v 4 3.9 -3.9
v 4 3.9 -4
v 4 4.1 -3
v 4 4.1 -3.3
v 4 4.3 -3
v 4 4.3 -3.3
v 4 4.4 -3.3
v 4 4.4 -3.9
v 4 4.4 -4
v 4 4.6 -2
v 4 4.6 -2.1
v 4 4.6 -2.6
v 4 4.8 -2.1
v 4 4.8 -3.1
v 4 4.9 -2
v 4 4.9 -3
v 4 5.1 -3.2
v 4 5.1 -3.6
v 4 5.4 -3
v 4 5.4 -3.1
v 4 5.4 -3.2
v 4 5.5 -3.5
v 4 5.5 -3.6
v 4 5.6 -3
v 4 5.6 -3.1
v 4 5.6 -3.5
v 4 5.9 -3.1
v 4 5.9 -3.9
v 4 6 -3
v 4 6 -4
v 0 2 0
v 0 3 0
v 0.1 2.1 0
v 0.1 2.9 0
v 1.4 2.4 0
v 1.4 2.7 0
v 1.5 2.4 0
v 1.5 2.5 0
v 1.5 2.7 0
v 1.5 2.9 0
v 1.5 3 0
v 1.9 2.2 0
v 1.9 2.5 0
v 1.9 3 0
v 3.6 2.2 0
v 3.6 2.9 0
v 3.6 3 0
v 3.9 2.1 0
v 3.9 2.9 0
v 4 2 0
v 4 3 0
v 0 3 -1
v 0 3.3 -1
v 0 3.7 -1
v 0 3.9 -1
v 0.1 3 -1
v 0.1 3.1 -1
v 0.1 3.3 -1
v 0.1 3.7 -1
v 0.7 3.7 -1
v 0.7 3.8 -1
v 0.7 3.9 -1
v 1.2 3.3 -1
v 1.2 3.4 -1
v 1.3 3.1 -1
v 1.3 3.3 -1
v 1.3 3.4 -1
v 1.3 3.5 -1
v 1.6 3.6 -1
v 1.6 3.8 -1
v 1.6 3.9 -1
v 1.8 3.2 -1
v 1.8 3.5 -1
v 1.9 3.1 -1
v 1.9 3.2 -1
v 2.2 3.1 -1
v 2.2 3.5 -1
v 2.4 3.5 -1
v 2.4 3.6 -1
v 2.4 3.8 -1
v 2.4 3.9 -1
v 2.5 3.5 -1
v 2.5 3.6 -1
v 2.7 3.2 -1
v 2.7 3.3 -1
v 2.7 3.4 -1
v 2.7 3.5 -1
v 2.8 3.1 -1
v 2.8 3.2 -1
v 2.8 3.3 -1
v 2.8 3.4 -1
v 3.2 3.1 -1
v 3.2 3.8 -1
v 3.2 3.9 -1
v 3.7 3.1 -1
v 3.7 3.7 -1
v 3.7 3.9 -1
v 3.9 3 -1
v 3.9 3.1 -1
v 3.9 3.3 -1
v 3.9 3.7 -1
v 4 3 -1
v 4 3.3 -1
v 4 3.7 -1
v 4 3.9 -1
v 0 3.9 -2
v 0 4.6 -2
v 0 4.9 -2
v 0.1 4.6 -2
v 0.1 4.8 -2
v 0.7 3.9 -2
v 0.7 4 -2
v 0.7 4.6 -2
v 1.6 3.9 -2
v 1.6 4 -2
v 1.6 4.4 -2
v 2.4 3.9 -2
v 2.4 4 -2
v 2.4 4.4 -2
v 2.9 3.9 -2
v 3.3 3.9 -2
v 3.3 4 -2
v 3.3 4.6 -2
v 3.9 4.6 -2
v 3.9 4.8 -2
v 4 3.9 -2
v 4 4.6 -2
v 4 4.9 -2
v 0 4.9 -3
v 0 6 -3
v 0.1 5 -3
v 0.1 5.9 -3
v 0.2 5.9 -3
v 0.2 6 -3
v 0.7 5.2 -3
v 0.7 5.7 -3
v 0.7 5.9 -3
v 0.7 6 -3
v 0.9 4.9 -3
v 0.9 5 -3
v 0.9 5.2 -3
v 0.9 5.7 -3
v 0.9 5.9 -3
v 1.8 5.4 -3
v 1.8 5.9 -3
v 1.8 6 -3
v 3.1 4.9 -3
v 3.1 5 -3
v 3.1 5.2 -3
v 3.2 5.4 -3
v 3.2 5.7 -3
v 3.2 5.9 -3
v 3.2 6 -3
v 3.3 5.2 -3
v 3.3 5.4 -3
v 3.3 5.6 -3
v 3.3 5.7 -3
v 3.9 5 -3
v 3.9 5.4 -3
v 3.9 5.6 -3
v 3.9 5.9 -3
v 4 4.9 -3
v 4 5.4 -3
v 4 5.6 -3
v 4 6 -3
v 0 2 -4
v 0 6 -4
v 0.1 2 -4
v 0.1 5.9 -4
v 1.5 2.5 -4
v 1.5 3 -4
v 2.5 2.5 -4
v 2.5 3 -4
v 3.9 2 -4
v 3.9 3.9 -4
v 3.9 4.4 -4
v 3.9 5.9 -4
v 4 2 -4
v 4 3.9 -4
v 4 4.4 -4
v 4 6 -4
v 0 2 0
v 4 2 0
v 0.1 2 -0.1
v 3.9 2 -0.1
v 0 2 -4
v 0.1 2 -4
v 3.9 2 -4
v 4 2 -4
v 0 3 0
v 1.5 3 0
v 1.9 3 0
v 3.6 3 0
v 4 3 0
v 0.1 3 -0.1
v 1.5 3 -0.1
v 3.6 3 -0.1
v 3.9 3 -0.1
v 1.4 3 -0.3
v 1.5 3 -0.3
v 0 3 -0.4
v 0.1 3 -0.4
v 3.9 3 -0.4
v 4 3 -0.4
v 1.4 3 -0.5
v 1.5 3 -0.5
v 1.9 3 -0.5
v 2.5 3 -0.5
v 3.6 3 -0.5
v 1.5 3 -0.6
v 1.6 3 -0.6
v 1.9 3 -0.6
v 2.2 3 -0.6
v 2.3 3 -0.6
v 2.5 3 -0.6
v 1.6 3 -0.7
v 1.9 3 -0.7
v 2.2 3 -0.7
v 2.3 3 -0.7
v 0.1 3 -0.9
v 3.9 3 -0.9
v 0 3 -1
v 0.1 3 -1
v 3.9 3 -1
v 4 3 -1
v 0 3.9 -1
v 0.7 3.9 -1
v 1.6 3.9 -1
v 2.4 3.9 -1
v 3.2 3.9 -1
v 3.7 3.9 -1
v 4 3.9 -1
v 0.7 3.9 -1.1
v 1.6 3.9 -1.1
v 2.4 3.9 -1.1
v 3.2 3.9 -1.1
v 0.7 3.9 -1.2
v 0.8 3.9 -1.2
v 0.7 3.9 -1.3
v 0.8 3.9 -1.3
v 0.7 3.9 -1.5
v 1 3.9 -1.5
v 3.2 3.9 -1.5
v 3.3 3.9 -1.5
v 3.7 3.9 -1.5
v 0.7 3.9 -1.7
v 1 3.9 -1.7
v 2.9 3.9 -1.8
v 3.3 3.9 -1.8
v 0.7 3.9 -1.9
v 1.6 3.9 -1.9
v 2.4 3.9 -1.9
v 2.9 3.9 -1.9
v 0 3.9 -2
v 0.7 3.9 -2
v 1.6 3.9 -2
v 2.4 3.9 -2
v 2.9 3.9 -2
v 3.3 3.9 -2
v 4 3.9 -2
v 0 4.9 -2
v 4 4.9 -2
v 0.1 4.9 -2.1
v 3.9 4.9 -2.1
v 1.2 4.9 -2.3
v 1.3 4.9 -2.3
v 0.9 4.9 -2.4
v 1.2 4.9 -2.4
v 1.3 4.9 -2.4
v 3.4 4.9 -2.4
v 0.7 4.9 -2.6
v 0.9 4.9 -2.6
v 0.7 4.9 -2.7
v 0.9 4.9 -2.7
v 3.1 4.9 -2.7
v 3.2 4.9 -2.7
v 3.3 4.9 -2.7
v 3.4 4.9 -2.7
v 3.2 4.9 -2.8
v 3.3 4.9 -2.8
v 0.1 4.9 -2.9
v 0.9 4.9 -2.9
v 3.1 4.9 -2.9
v 3.9 4.9 -2.9
v 0 4.9 -3
v 0.9 4.9 -3
v 3.1 4.9 -3
v 4 4.9 -3
v 0 6 -3
v 0.2 6 -3
v 0.7 6 -3
v 1.8 6 -3
v 3.2 6 -3
v 4 6 -3
v 0.1 6 -3.1
v 0.2 6 -3.1
v 0.7 6 -3.1
v 1.8 6 -3.1
v 3.2 6 -3.1
v 3.9 6 -3.1
v 1.8 6 -3.2
v 3.2 6 -3.2
v 0.7 6 -3.3
v 1.1 6 -3.3
v 0.7 6 -3.6
v 1.1 6 -3.6
v 0.2 6 -3.7
v 0.7 6 -3.7
v 0.1 6 -3.9
v 3.9 6 -3.9
v 0 6 -4
v 4 6 -4

# faces
f 3/4/1 2/4/1 1/4/1
f 4/4/1 2/4/1 3/4/1
f 5/2/1 4/2/1 3/2/1
f 6/2/1 4/2/1 5/2/1
f 7/2/1 4/2/1 6/2/1
f 8/2/1 4/2/1 7/2/1
f 9/1/1 6/1/1 5/1/1
f 9/2/1 7/2/1 6/2/1
f 10/2/1 7/2/1 9/2/1
f 11/2/1 4/2/1 8/2/1
f 11/1/1 8/1/1 7/1/1
f 12/2/1 4/2/1 11/2/1
f 13/2/1 7/2/1 10/2/1
f 13/1/1 10/1/1 9/1/1
f 14/2/1 7/2/1 13/2/1
f 15/1/1 12/1/1 11/1/1
f 15/2/1 7/2/1 14/2/1
f 15/1/1 11/1/1 7/1/1
f 16/1/1 12/1/1 15/1/1
f 17/4/1 3/4/1 1/4/1
f 17/2/1 5/2/1 3/2/1
f 18/1/1 14/1/1 13/1/1
f 18/2/1 5/2/1 17/2/1
f 18/1/1 9/1/1 5/1/1
f 18/1/1 13/1/1 9/1/1
f 19/1/1 14/1/1 18/1/1
f 20/2/1 16/2/1 15/2/1
f 20/1/1 14/1/1 19/1/1
f 20/2/1 15/2/1 14/2/1
f 21/4/1 17/4/1 1/4/1
f 21/4/1 18/4/1 17/4/1
f 22/1/1 19/1/1 18/1/1
f 22/4/1 18/4/1 21/4/1
f 23/1/1 19/1/1 22/1/1
f 24/1/1 12/1/1 16/1/1
f 25/1/1 12/1/1 24/1/1
f 26/1/1 12/1/1 25/1/1
f 27/2/1 4/2/1 12/2/1
f 27/1/1 12/1/1 26/1/1
f 28/1/1 19/1/1 23/1/1
f 29/2/1 20/2/1 19/2/1
f 29/1/1 19/1/1 28/1/1
f 30/1/1 28/1/1 23/1/1
f 31/1/1 28/1/1 30/1/1
f 32/2/1 29/2/1 28/2/1
f 32/1/1 28/1/1 31/1/1
f 33/2/1 16/2/1 20/2/1
f 33/2/1 29/2/1 32/2/1
f 33/2/1 20/2/1 29/2/1
f 33/1/1 24/1/1 16/1/1
f 34/1/1 24/1/1 33/1/1
f 35/1/1 24/1/1 34/1/1
f 36/3/1 25/3/1 24/3/1
f 36/1/1 24/1/1 35/1/1
f 37/1/1 26/1/1 25/1/1
f 37/3/1 25/3/1 36/3/1
f 38/1/1 26/1/1 37/1/1
f 39/2/1 32/2/1 31/2/1
f 39/1/1 35/1/1 34/1/1
f 39/2/1 33/2/1 32/2/1
f 39/2/1 34/2/1 33/2/1
f 40/2/1 36/2/1 35/2/1
f 40/1/1 35/1/1 39/1/1
f 41/4/1 31/4/1 30/4/1
f 42/2/1 39/2/1 31/2/1
f 42/4/1 31/4/1 41/4/1
f 42/2/1 40/2/1 39/2/1
f 43/2/1 40/2/1 42/2/1
f 44/1/1 42/1/1 41/1/1
f 44/1/1 43/1/1 42/1/1
f 45/1/1 43/1/1 44/1/1
f 46/1/1 26/1/1 38/1/1
f 46/2/1 38/2/1 37/2/1
f 47/2/1 27/2/1 26/2/1
f 47/1/1 26/1/1 46/1/1
f 48/2/1 36/2/1 40/2/1
f 48/3/1 37/3/1 36/3/1
f 48/2/1 40/2/1 43/2/1
f 49/2/1 46/2/1 37/2/1
f 49/3/1 37/3/1 48/3/1
f 49/2/1 47/2/1 46/2/1
f 50/1/1 43/1/1 45/1/1
f 51/1/1 43/1/1 50/1/1
f 52/2/1 48/2/1 43/2/1
f 52/1/1 43/1/1 51/1/1
f 52/2/1 49/2/1 48/2/1
f 53/2/1 52/2/1 51/2/1
f 53/2/1 49/2/1 52/2/1
f 54/2/1 47/2/1 49/2/1
f 54/2/1 49/2/1 53/2/1
f 55/2/1 53/2/1 51/2/1
f 55/4/1 51/4/1 50/4/1
f 56/2/1 53/2/1 55/2/1
f 57/4/1 55/4/1 50/4/1
f 57/4/1 56/4/1 55/4/1
f 58/4/1 56/4/1 57/4/1
f 59/2/1 47/2/1 54/2/1
f 59/1/1 54/1/1 53/1/1
f 60/2/1 4/2/1 27/2/1
f 60/2/1 47/2/1 59/2/1
f 60/2/1 27/2/1 47/2/1
f 61/1/1 59/1/1 53/1/1
f 61/1/1 60/1/1 59/1/1
f 62/2/1 4/2/1 60/2/1
f 62/1/1 60/1/1 61/1/1
f 63/1/1 61/1/1 53/1/1
f 63/2/1 53/2/1 56/2/1
f 64/2/1 62/2/1 61/2/1
f 64/1/1 61/1/1 63/1/1
f 65/4/1 56/4/1 58/4/1
f 65/2/1 63/2/1 56/2/1
f 65/2/1 64/2/1 63/2/1
f 66/2/1 4/2/1 62/2/1
f 66/2/1 64/2/1 65/2/1
f 66/4/1 2/4/1 4/4/1
f 66/2/1 62/2/1 64/2/1
f 67/4/1 65/4/1 58/4/1
f 67/4/1 66/4/1 65/4/1
f 68/4/1 2/4/1 66/4/1
f 68/4/1 66/4/1 67/4/1
f 69/4/2 70/4/2 71/4/2
f 71/4/2 70/4/2 72/4/2
f 71/2/2 72/2/2 73/2/2
f 73/2/2 72/2/2 74/2/2
f 71/2/2 73/2/2 75/2/2
f 73/1/2 74/1/2 76/1/2
f 75/2/2 73/2/2 76/2/2
f 74/2/2 72/2/2 77/2/2
f 77/2/2 72/2/2 78/2/2
f 76/1/2 74/1/2 79/1/2
f 75/1/2 76/1/2 79/1/2
f 74/2/2 77/2/2 79/2/2
f 79/2/2 77/2/2 80/2/2
f 80/2/2 77/2/2 81/2/2
f 77/1/2 78/1/2 82/1/2
f 81/2/2 77/2/2 82/2/2
f 69/4/2 71/4/2 83/4/2
f 71/2/2 75/2/2 83/2/2
f 75/1/2 79/1/2 84/1/2
f 83/2/2 75/2/2 84/2/2
f 79/1/2 80/1/2 84/1/2
f 69/4/2 83/4/2 85/4/2
f 83/4/2 84/4/2 85/4/2
f 84/1/2 80/1/2 86/1/2
f 85/4/2 84/4/2 86/4/2
f 86/1/2 80/1/2 87/1/2
f 87/1/2 80/1/2 88/1/2
f 80/2/2 81/2/2 89/2/2
f 88/1/2 80/1/2 89/1/2
f 81/1/2 82/1/2 90/1/2
f 89/2/2 81/2/2 90/2/2
f 88/2/2 89/2/2 90/2/2
f 82/1/2 78/1/2 91/1/2
f 90/1/2 82/1/2 91/1/2
f 87/1/2 88/1/2 92/1/2
f 92/1/2 88/1/2 93/1/2
f 93/1/2 88/1/2 94/1/2
f 91/1/2 78/1/2 95/1/2
f 90/2/2 91/2/2 95/2/2
f 95/1/2 78/1/2 96/1/2
f 96/1/2 78/1/2 97/1/2
f 97/1/2 78/1/2 98/1/2
f 98/1/2 78/1/2 99/1/2
f 78/2/2 72/2/2 100/2/2
f 99/1/2 78/1/2 100/1/2
f 94/1/2 88/1/2 101/1/2
f 93/2/2 94/2/2 101/2/2
f 88/2/2 90/2/2 102/2/2
f 101/1/2 88/1/2 102/1/2
f 90/2/2 95/2/2 102/2/2
f 95/2/2 96/2/2 102/2/2
f 98/1/2 99/1/2 103/1/2
f 97/2/2 98/2/2 103/2/2
f 99/2/2 100/2/2 104/2/2
f 103/1/2 99/1/2 104/1/2
f 102/2/2 96/2/2 105/2/2
f 101/2/2 102/2/2 105/2/2
f 96/1/2 97/1/2 105/1/2
f 97/2/2 103/2/2 106/2/2
f 105/1/2 97/1/2 106/1/2
f 103/2/2 104/2/2 106/2/2
f 92/4/2 93/4/2 107/4/2
f 93/2/2 101/2/2 108/2/2
f 107/4/2 93/4/2 108/4/2
f 101/2/2 105/2/2 108/2/2
f 105/2/2 106/2/2 108/2/2
f 108/2/2 106/2/2 109/2/2
f 104/2/2 100/2/2 110/2/2
f 109/2/2 106/2/2 110/2/2
f 100/2/2 72/2/2 110/2/2
f 106/2/2 104/2/2 110/2/2
f 110/2/2 72/2/2 111/2/2
f 108/1/2 109/1/2 112/1/2
f 107/1/2 108/1/2 112/1/2
f 112/1/2 109/1/2 113/1/2
f 109/2/2 110/2/2 114/2/2
f 110/1/2 111/1/2 115/1/2
f 114/2/2 110/2/2 115/2/2
f 111/2/2 72/2/2 116/2/2
f 115/1/2 111/1/2 116/1/2
f 72/4/2 70/4/2 117/4/2
f 116/2/2 72/2/2 117/2/2
f 117/4/2 70/4/2 118/4/2
f 109/2/2 114/2/2 119/2/2
f 115/1/2 116/1/2 120/1/2
f 119/2/2 114/2/2 120/2/2
f 114/1/2 115/1/2 120/1/2
f 116/1/2 117/1/2 120/1/2
f 117/1/2 118/1/2 120/1/2
f 109/2/2 119/2/2 121/2/2
f 119/1/2 120/1/2 121/1/2
f 120/1/2 118/1/2 122/1/2
f 121/1/2 120/1/2 122/1/2
f 121/2/2 122/2/2 123/2/2
f 122/1/2 118/1/2 123/1/2
f 123/1/2 118/1/2 124/1/2
f 124/1/2 118/1/2 125/1/2
f 113/1/2 109/1/2 126/1/2
f 126/1/2 109/1/2 127/1/2
f 109/2/2 121/2/2 128/2/2
f 127/1/2 109/1/2 128/1/2
f 121/2/2 123/2/2 128/2/2
f 123/2/2 124/2/2 128/2/2
f 126/4/2 127/4/2 129/4/2
f 127/2/2 128/2/2 129/2/2
f 128/2/2 124/2/2 130/2/2
f 129/2/2 128/2/2 130/2/2
f 126/4/2 129/4/2 131/4/2
f 129/4/2 130/4/2 131/4/2
f 131/4/2 130/4/2 132/4/2
f 130/2/2 124/2/2 133/2/2
f 133/2/2 124/2/2 134/2/2
f 132/4/2 130/4/2 135/4/2
f 130/2/2 133/2/2 136/2/2
f 135/4/2 130/4/2 136/4/2
f 133/1/2 134/1/2 137/1/2
f 136/2/2 133/2/2 137/2/2
f 135/1/2 136/1/2 138/1/2
f 137/1/2 134/1/2 138/1/2
f 136/1/2 137/1/2 138/1/2
f 134/2/2 124/2/2 139/2/2
f 138/1/2 134/1/2 139/1/2
f 135/1/2 138/1/2 140/1/2
f 140/1/2 138/1/2 141/1/2
f 138/2/2 139/2/2 142/2/2
f 141/1/2 138/1/2 142/1/2
f 140/4/2 141/4/2 143/4/2
f 141/2/2 142/2/2 143/2/2
f 139/2/2 124/2/2 144/2/2
f 143/2/2 142/2/2 144/2/2
f 124/4/2 125/4/2 144/4/2
f 142/2/2 139/2/2 144/2/2
f 140/4/2 143/4/2 145/4/2
f 143/4/2 144/4/2 145/4/2
f 144/4/2 125/4/2 146/4/2
f 145/4/2 144/4/2 146/4/2
f 149/4/3 148/4/3 147/4/3
f 150/4/3 148/4/3 149/4/3
f 151/2/3 150/2/3 149/2/3
f 152/2/3 150/2/3 151/2/3
f 153/2/3 151/2/3 149/2/3
f 153/1/3 152/1/3 151/1/3
f 154/1/3 152/1/3 153/1/3
f 155/2/3 150/2/3 152/2/3
f 155/1/3 152/1/3 154/1/3
f 156/4/3 148/4/3 150/4/3
f 156/2/3 150/2/3 155/2/3
f 157/4/3 148/4/3 156/4/3
f 158/2/3 154/2/3 153/2/3
f 158/2/3 153/2/3 149/2/3
f 159/1/3 155/1/3 154/1/3
f 159/2/3 154/2/3 158/2/3
f 159/1/3 157/1/3 156/1/3
f 159/1/3 156/1/3 155/1/3
f 160/1/3 157/1/3 159/1/3
f 161/2/3 158/2/3 149/2/3
f 161/3/3 159/3/3 158/3/3
f 161/3/3 160/3/3 159/3/3
f 162/3/3 160/3/3 161/3/3
f 163/3/3 160/3/3 162/3/3
f 164/4/3 149/4/3 147/4/3
f 164/2/3 161/2/3 149/2/3
f 164/2/3 162/2/3 161/2/3
f 165/4/3 163/4/3 162/4/3
f 165/2/3 162/2/3 164/2/3
f 166/4/3 164/4/3 147/4/3
f 166/4/3 165/4/3 164/4/3
f 167/4/3 163/4/3 165/4/3
f 167/4/3 165/4/3 166/4/3
f 172/1/3 169/1/3 168/1/3
f 173/1/3 169/1/3 172/1/3
f 174/4/3 170/4/3 169/4/3
f 174/1/3 169/1/3 173/1/3
f 175/1/3 171/1/3 170/1/3
f 175/4/3 170/4/3 174/4/3
f 176/2/3 174/2/3 173/2/3
f 176/1/3 171/1/3 175/1/3
f 176/2/3 175/2/3 174/2/3
f 177/1/3 171/1/3 176/1/3
f 178/1/3 171/1/3 177/1/3
f 179/2/3 176/2/3 173/2/3
f 179/2/3 177/2/3 176/2/3
f 180/2/3 177/2/3 179/2/3
f 181/4/3 173/4/3 172/4/3
f 181/2/3 179/2/3 173/2/3
f 182/1/3 180/1/3 179/1/3
f 182/2/3 179/2/3 181/2/3
f 183/2/3 177/2/3 180/2/3
f 183/1/3 180/1/3 182/1/3
f 184/2/3 177/2/3 183/2/3
f 185/2/3 177/2/3 184/2/3
f 186/4/3 178/4/3 177/4/3
f 186/2/3 177/2/3 185/2/3
f 187/4/3 178/4/3 186/4/3
f 188/1/3 182/1/3 181/1/3
f 188/1/3 183/1/3 182/1/3
f 188/1/3 184/1/3 183/1/3
f 189/2/3 185/2/3 184/2/3
f 189/1/3 184/1/3 188/1/3
f 190/1/3 188/1/3 181/1/3
f 190/4/3 181/4/3 172/4/3
f 191/2/3 189/2/3 188/2/3
f 191/1/3 188/1/3 190/1/3
f 192/4/3 190/4/3 172/4/3
f 192/2/3 191/2/3 190/2/3
f 193/2/3 185/2/3 189/2/3
f 193/2/3 191/2/3 192/2/3
f 193/2/3 189/2/3 191/2/3
f 194/1/3 193/1/3 192/1/3
f 194/2/3 185/2/3 193/2/3
f 195/3/3 186/3/3 185/3/3
f 195/2/3 185/2/3 194/2/3
f 195/3/3 187/3/3 186/3/3
f 196/3/3 187/3/3 195/3/3
f 197/3/3 187/3/3 196/3/3
f 198/1/3 194/1/3 192/1/3
f 198/1/3 195/1/3 194/1/3
f 199/2/3 196/2/3 195/2/3
f 199/1/3 195/1/3 198/1/3
f 200/1/3 198/1/3 192/1/3
f 201/1/3 198/1/3 200/1/3
f 202/1/3 198/1/3 201/1/3
f 203/2/3 199/2/3 198/2/3
f 203/1/3 198/1/3 202/1/3
f 204/4/3 192/4/3 172/4/3
f 204/1/3 200/1/3 192/1/3
f 205/2/3 201/2/3 200/2/3
f 205/1/3 200/1/3 204/1/3
f 206/1/3 202/1/3 201/1/3
f 206/2/3 201/2/3 205/2/3
f 207/2/3 203/2/3 202/2/3
f 207/1/3 202/1/3 206/1/3
f 208/2/3 205/2/3 204/2/3
f 208/2/3 206/2/3 205/2/3
f 208/2/3 207/2/3 206/2/3
f 208/4/3 204/4/3 172/4/3
f 209/2/3 199/2/3 203/2/3
f 209/2/3 207/2/3 208/2/3
f 209/4/3 197/4/3 196/4/3
f 209/2/3 203/2/3 207/2/3
f 209/2/3 196/2/3 199/2/3
f 210/4/3 197/4/3 209/4/3
f 211/4/3 208/4/3 172/4/3
f 211/3/3 209/3/3 208/3/3
f 211/3/3 210/3/3 209/3/3
f 212/3/3 210/3/3 211/3/3
f 213/3/3 210/3/3 212/3/3
f 214/4/3 211/4/3 172/4/3
f 215/2/3 212/2/3 211/2/3
f 215/4/3 211/4/3 214/4/3
f 216/2/3 212/2/3 215/2/3
f 217/1/3 213/1/3 212/1/3
f 217/2/3 212/2/3 216/2/3
f 218/1/3 216/1/3 215/1/3
f 218/1/3 215/1/3 214/1/3
f 219/4/3 217/4/3 216/4/3
f 219/1/3 216/1/3 218/1/3
f 220/1/3 213/1/3 217/1/3
f 220/4/3 217/4/3 219/4/3
f 221/1/3 213/1/3 220/1/3
f 225/1/3 223/1/3 222/1/3
f 225/4/3 224/4/3 223/4/3
f 226/4/3 224/4/3 225/4/3
f 227/1/3 225/1/3 222/1/3
f 228/1/3 225/1/3 227/1/3
f 229/2/3 226/2/3 225/2/3
f 229/1/3 225/1/3 228/1/3
f 230/4/3 228/4/3 227/4/3
f 231/2/3 229/2/3 228/2/3
f 231/4/3 228/4/3 230/4/3
f 232/2/3 229/2/3 231/2/3
f 233/3/3 231/3/3 230/3/3
f 233/3/3 232/3/3 231/3/3
f 234/3/3 232/3/3 233/3/3
f 235/2/3 229/2/3 232/2/3
f 235/3/3 232/3/3 234/3/3
f 236/4/3 234/4/3 233/4/3
f 237/4/3 234/4/3 236/4/3
f 238/2/3 235/2/3 234/2/3
f 238/4/3 234/4/3 237/4/3
f 239/2/3 226/2/3 229/2/3
f 239/2/3 235/2/3 238/2/3
f 239/2/3 229/2/3 235/2/3
f 240/1/3 238/1/3 237/1/3
f 240/2/3 226/2/3 239/2/3
f 240/1/3 239/1/3 238/1/3
f 241/4/3 224/4/3 226/4/3
f 241/2/3 226/2/3 240/2/3
f 242/1/3 240/1/3 237/1/3
f 243/4/3 241/4/3 240/4/3
f 243/1/3 240/1/3 242/1/3
f 244/4/3 224/4/3 241/4/3
f 244/4/3 241/4/3 243/4/3
f 247/4/3 246/4/3 245/4/3
f 248/4/3 246/4/3 247/4/3
f 249/2/3 248/2/3 247/2/3
f 249/4/3 246/4/3 248/4/3
f 250/4/3 246/4/3 249/4/3
f 251/2/3 249/2/3 247/2/3
f 252/2/3 249/2/3 251/2/3
f 253/1/3 250/1/3 249/1/3
f 253/2/3 249/2/3 252/2/3
f 254/1/3 250/1/3 253/1/3
f 255/4/3 247/4/3 245/4/3
f 256/2/3 251/2/3 247/2/3
f 256/4/3 247/4/3 255/4/3
f 257/1/3 252/1/3 251/1/3
f 257/2/3 251/2/3 256/2/3
f 258/2/3 253/2/3 252/2/3
f 258/1/3 252/1/3 257/1/3
f 259/4/3 254/4/3 253/4/3
f 259/2/3 253/2/3 258/2/3
f 260/1/3 256/1/3 255/1/3
f 260/1/3 257/1/3 256/1/3
f 260/1/3 259/1/3 258/1/3
f 260/1/3 258/1/3 257/1/3
f 261/4/3 254/4/3 259/4/3
f 261/1/3 259/1/3 260/1/3
f 262/4/3 254/4/3 261/4/3
f 263/1/3 260/1/3 255/1/3
f 264/1/3 260/1/3 263/1/3
f 265/1/3 260/1/3 264/1/3
f 266/3/3 261/3/3 260/3/3
f 266/1/3 260/1/3 265/1/3
f 266/3/3 262/3/3 261/3/3
f 267/3/3 262/3/3 266/3/3
f 268/3/3 262/3/3 267/3/3
f 269/3/3 262/3/3 268/3/3
f 270/2/3 265/2/3 264/2/3
f 270/1/3 266/1/3 265/1/3
f 270/1/3 267/1/3 266/1/3
f 271/1/3 267/1/3 270/1/3
f 272/1/3 267/1/3 271/1/3
f 273/2/3 268/2/3 267/2/3
f 273/1/3 267/1/3 272/1/3
f 274/4/3 264/4/3 263/4/3
f 274/2/3 270/2/3 264/2/3
f 274/2/3 271/2/3 270/2/3
f 275/1/3 272/1/3 271/1/3
f 275/2/3 271/2/3 274/2/3
f 276/2/3 273/2/3 272/2/3
f 276/1/3 272/1/3 275/1/3
f 277/2/3 268/2/3 273/2/3
f 277/2/3 273/2/3 276/2/3
f 277/4/3 269/4/3 268/4/3
f 278/4/3 275/4/3 274/4/3
f 278/4/3 274/4/3 263/4/3
f 279/1/3 276/1/3 275/1/3
f 279/4/3 275/4/3 278/4/3
f 280/4/3 277/4/3 276/4/3
f 280/1/3 276/1/3 279/1/3
f 281/4/3 269/4/3 277/4/3
f 281/4/3 277/4/3 280/4/3
f 282/4/4 283/4/4 284/4/4
f 284/4/4 283/4/4 285/4/4
f 284/2/4 285/2/4 286/2/4
f 286/2/4 285/2/4 287/2/4
f 284/2/4 286/2/4 288/2/4
f 286/1/4 287/1/4 288/1/4
f 287/2/4 285/2/4 289/2/4
f 288/1/4 287/1/4 289/1/4
f 284/2/4 288/2/4 290/2/4
f 288/2/4 289/2/4 290/2/4
f 289/2/4 285/2/4 291/2/4
f 290/2/4 289/2/4 291/2/4
f 291/2/4 285/2/4 292/2/4
f 285/4/4 283/4/4 293/4/4
f 292/2/4 285/2/4 293/2/4
f 290/4/4 291/4/4 294/4/4
f 291/1/4 292/1/4 295/1/4
f 294/4/4 291/4/4 295/4/4
f 292/4/4 293/4/4 296/4/4
f 295/1/4 292/1/4 296/1/4
f 293/4/4 283/4/4 297/4/4
f 296/4/4 293/4/4 297/4/4
f 300/4/5 299/4/5 298/4/5
f 301/4/5 299/4/5 300/4/5
f 302/4/5 300/4/5 298/4/5
f 303/2/5 301/2/5 300/2/5
f 303/4/5 300/4/5 302/4/5
f 304/4/5 299/4/5 301/4/5
f 304/2/5 301/2/5 303/2/5
f 305/4/5 299/4/5 304/4/5
f 306/4/6 307/4/6 311/4/6
f 307/1/6 308/1/6 312/1/6
f 311/4/6 307/4/6 312/4/6
f 309/4/6 310/4/6 313/4/6
f 308/3/6 309/3/6 313/3/6
f 313/4/6 310/4/6 314/4/6
f 311/2/6 312/2/6 315/2/6
f 312/1/6 308/1/6 316/1/6
f 315/2/6 312/2/6 316/2/6
f 306/4/6 311/4/6 317/4/6
f 311/2/6 315/2/6 318/2/6
f 317/4/6 311/4/6 318/4/6
f 314/4/6 310/4/6 319/4/6
f 313/2/6 314/2/6 319/2/6
f 319/4/6 310/4/6 320/4/6
f 318/2/6 315/2/6 321/2/6
f 315/1/6 316/1/6 321/1/6
f 316/1/6 308/1/6 322/1/6
f 321/1/6 316/1/6 322/1/6
f 308/3/6 313/3/6 323/3/6
f 322/1/6 308/1/6 323/1/6
f 323/3/6 313/3/6 324/3/6
f 313/2/6 319/2/6 325/2/6
f 324/3/6 313/3/6 325/3/6
f 321/2/6 322/2/6 326/2/6
f 323/1/6 324/1/6 326/1/6
f 322/1/6 323/1/6 326/1/6
f 326/1/6 324/1/6 327/1/6
f 327/1/6 324/1/6 328/1/6
f 328/1/6 324/1/6 329/1/6
f 329/1/6 324/1/6 330/1/6
f 324/2/6 325/2/6 331/2/6
f 330/1/6 324/1/6 331/1/6
f 326/2/6 327/2/6 332/2/6
f 327/1/6 328/1/6 332/1/6
f 328/2/6 329/2/6 333/2/6
f 332/1/6 328/1/6 333/1/6
f 329/1/6 330/1/6 334/1/6
f 333/2/6 329/2/6 334/2/6
f 330/2/6 331/2/6 335/2/6
f 334/1/6 330/1/6 335/1/6
f 318/2/6 321/2/6 336/2/6
f 317/1/6 318/1/6 336/1/6
f 334/2/6 335/2/6 336/2/6
f 326/2/6 332/2/6 336/2/6
f 333/2/6 334/2/6 336/2/6
f 332/2/6 333/2/6 336/2/6
f 321/2/6 326/2/6 336/2/6
f 335/2/6 331/2/6 337/2/6
f 336/2/6 335/2/6 337/2/6
f 325/2/6 319/2/6 337/2/6
f 319/1/6 320/1/6 337/1/6
f 331/2/6 325/2/6 337/2/6
f 317/1/6 336/1/6 338/1/6
f 336/4/6 337/4/6 339/4/6
f 338/1/6 336/1/6 339/1/6
f 337/1/6 320/1/6 340/1/6
f 339/4/6 337/4/6 340/4/6
f 340/1/6 320/1/6 341/1/6
f 342/1/6 343/1/6 349/1/6
f 343/4/6 344/4/6 349/4/6
f 344/3/6 345/3/6 350/3/6
f 349/4/6 344/4/6 350/4/6
f 345/4/6 346/4/6 351/4/6
f 350/3/6 345/3/6 351/3/6
f 346/3/6 347/3/6 352/3/6
f 351/4/6 346/4/6 352/4/6
f 342/1/6 349/1/6 353/1/6
f 349/2/6 350/2/6 353/2/6
f 353/2/6 350/2/6 354/2/6
f 342/1/6 353/1/6 355/1/6
f 353/1/6 354/1/6 355/1/6
f 354/2/6 350/2/6 356/2/6
f 355/1/6 354/1/6 356/1/6
f 342/1/6 355/1/6 357/1/6
f 355/2/6 356/2/6 357/2/6
f 356/2/6 350/2/6 358/2/6
f 357/2/6 356/2/6 358/2/6
f 352/3/6 347/3/6 359/3/6
f 351/2/6 352/2/6 359/2/6
f 359/3/6 347/3/6 360/3/6
f 347/1/6 348/1/6 361/1/6
f 360/3/6 347/3/6 361/3/6
f 357/1/6 358/1/6 362/1/6
f 342/1/6 357/1/6 362/1/6
f 358/2/6 350/2/6 363/2/6
f 362/1/6 358/1/6 363/1/6
f 359/2/6 360/2/6 364/2/6
f 351/2/6 359/2/6 364/2/6
f 360/1/6 361/1/6 365/1/6
f 364/2/6 360/2/6 365/2/6
f 342/1/6 362/1/6 366/1/6
f 362/2/6 363/2/6 366/2/6
f 363/2/6 350/2/6 367/2/6
f 366/2/6 363/2/6 367/2/6
f 350/3/6 351/3/6 367/3/6
f 351/2/6 364/2/6 368/2/6
f 367/3/6 351/3/6 368/3/6
f 364/1/6 365/1/6 369/1/6
f 368/2/6 364/2/6 369/2/6
f 342/1/6 366/1/6 370/1/6
f 366/4/6 367/4/6 371/4/6
f 370/1/6 366/1/6 371/1/6
f 367/3/6 368/3/6 372/3/6
f 371/4/6 367/4/6 372/4/6
f 368/4/6 369/4/6 373/4/6
f 372/3/6 368/3/6 373/3/6
f 369/1/6 365/1/6 374/1/6
f 373/4/6 369/4/6 374/4/6
f 365/1/6 361/1/6 375/1/6
f 374/1/6 365/1/6 375/1/6
f 361/1/6 348/1/6 376/1/6
f 375/1/6 361/1/6 376/1/6
f 377/4/6 378/4/6 379/4/6
f 379/4/6 378/4/6 380/4/6
f 379/2/6 380/2/6 381/2/6
f 381/2/6 380/2/6 382/2/6
f 379/2/6 381/2/6 383/2/6
f 381/1/6 382/1/6 384/1/6
f 383/2/6 381/2/6 384/2/6
f 382/2/6 380/2/6 385/2/6
f 384/1/6 382/1/6 385/1/6
f 385/2/6 380/2/6 386/2/6
f 379/2/6 383/2/6 387/2/6
f 383/1/6 384/1/6 388/1/6
f 387/2/6 383/2/6 388/2/6
f 384/1/6 385/1/6 388/1/6
f 385/1/6 386/1/6 388/1/6
f 379/2/6 387/2/6 389/2/6
f 387/1/6 388/1/6 389/1/6
f 388/1/6 386/1/6 390/1/6
f 389/1/6 388/1/6 390/1/6
f 390/1/6 386/1/6 391/1/6
f 391/1/6 386/1/6 392/1/6
f 392/1/6 386/1/6 393/1/6
f 386/2/6 380/2/6 394/2/6
f 393/1/6 386/1/6 394/1/6
f 392/1/6 393/1/6 395/1/6
f 391/2/6 392/2/6 395/2/6
f 393/2/6 394/2/6 396/2/6
f 395/1/6 393/1/6 396/1/6
f 377/4/6 379/4/6 397/4/6
f 379/2/6 389/2/6 397/2/6
f 389/2/6 390/2/6 397/2/6
f 390/1/6 391/1/6 398/1/6
f 397/2/6 390/2/6 398/2/6
f 395/2/6 396/2/6 399/2/6
f 398/1/6 391/1/6 399/1/6
f 391/2/6 395/2/6 399/2/6
f 396/2/6 394/2/6 400/2/6
f 399/2/6 396/2/6 400/2/6
f 380/4/6 378/4/6 400/4/6
f 394/2/6 380/2/6 400/2/6
f 377/4/6 397/4/6 401/4/6
f 397/4/6 398/4/6 401/4/6
f 398/1/6 399/1/6 402/1/6
f 401/4/6 398/4/6 402/4/6
f 399/4/6 400/4/6 403/4/6
f 402/1/6 399/1/6 403/1/6
f 400/4/6 378/4/6 404/4/6
f 403/4/6 400/4/6 404/4/6
f 405/4/6 406/4/6 411/4/6
f 406/1/6 407/1/6 412/1/6
f 411/4/6 406/4/6 412/4/6
f 407/4/6 408/4/6 413/4/6
f 412/1/6 407/1/6 413/1/6
f 408/3/6 409/3/6 414/3/6
f 413/4/6 408/4/6 414/4/6
f 409/4/6 410/4/6 415/4/6
f 414/3/6 409/3/6 415/3/6
f 415/4/6 410/4/6 416/4/6
f 413/2/6 414/2/6 417/2/6
f 414/3/6 415/3/6 417/3/6
f 415/2/6 416/2/6 418/2/6
f 417/3/6 415/3/6 418/3/6
f 412/1/6 413/1/6 419/1/6
f 413/2/6 417/2/6 419/2/6
f 417/2/6 418/2/6 419/2/6
f 419/2/6 418/2/6 420/2/6
f 412/1/6 419/1/6 421/1/6
f 419/1/6 420/1/6 421/1/6
f 420/2/6 418/2/6 422/2/6
f 421/1/6 420/1/6 422/1/6
f 411/2/6 412/2/6 423/2/6
f 412/1/6 421/1/6 423/1/6
f 421/2/6 422/2/6 424/2/6
f 423/1/6 421/1/6 424/1/6
f 405/4/6 411/4/6 425/4/6
f 411/2/6 423/2/6 425/2/6
f 423/2/6 424/2/6 425/2/6
f 416/4/6 410/4/6 426/4/6
f 425/2/6 424/2/6 426/2/6
f 424/2/6 422/2/6 426/2/6
f 418/2/6 416/2/6 426/2/6
f 422/2/6 418/2/6 426/2/6
f 405/4/6 425/4/6 427/4/6
f 425/4/6 426/4/6 427/4/6
f 426/4/6 410/4/6 428/4/6
f 427/4/6 426/4/6 428/4/6
